<?xml version="1.0" standalone="no"?>
<!DOCTYPE svg PUBLIC "-//W3C//DTD SVG 20010904//EN"
 "http://www.w3.org/TR/2001/REC-SVG-20010904/DTD/svg10.dtd">
<svg version="1.0" xmlns="http://www.w3.org/2000/svg"
 width="64.000000pt" height="64.000000pt" viewBox="0 0 64.000000 64.000000"
 preserveAspectRatio="xMidYMid meet">

<g transform="translate(0.000000,64.000000) scale(0.100000,-0.100000)"
fill="#fff" stroke="none">
<path d="M414 576 c-11 -28 1 -51 25 -51 32 0 49 28 32 49 -17 20 -50 21 -57
2z"/>
<path d="M210 570 c0 -5 5 -10 10 -10 6 0 10 5 10 10 0 6 -4 10 -10 10 -5 0
-10 -4 -10 -10z"/>
<path d="M47 543 c-13 -12 -7 -41 9 -47 9 -3 26 -6 39 -6 33 0 41 -19 55 -136
12 -99 11 -103 -9 -123 -12 -12 -21 -27 -21 -34 0 -19 33 -47 53 -47 13 0 17
-9 17 -33 0 -61 59 -88 101 -46 16 16 20 29 15 50 l-5 29 63 0 63 0 -5 -30
c-6 -38 21 -70 58 -70 37 0 64 32 58 70 -4 28 -3 30 29 30 18 0 33 4 33 10 0
6 -86 11 -222 12 -215 3 -223 4 -223 23 0 19 8 20 195 23 208 2 228 5 212 25
-7 8 -2 42 14 107 35 145 55 130 -175 130 l-199 0 -22 35 c-20 33 -25 35 -74
35 -29 0 -56 -3 -59 -7z m183 -100 c0 -8 -12 -13 -35 -13 -32 0 -43 8 -30 22
11 11 65 4 65 -9z m78 0 c2 -8 -6 -13 -22 -13 -17 0 -26 5 -26 16 0 19 41 16
48 -3z m72 2 c0 -9 -9 -15 -25 -15 -24 0 -32 10 -18 23 12 13 43 7 43 -8z m78
-2 c2 -8 -6 -13 -22 -13 -17 0 -26 5 -26 16 0 19 41 16 48 -3z m112 2 c0 -11
-12 -15 -45 -15 -33 0 -45 4 -45 15 0 11 12 15 45 15 33 0 45 -4 45 -15z
m-340 -50 c0 -10 -10 -15 -30 -15 -20 0 -30 5 -30 15 0 10 10 15 30 15 20 0
30 -5 30 -15z m78 -2 c2 -8 -6 -13 -22 -13 -17 0 -26 5 -26 16 0 19 41 16 48
-3z m72 2 c0 -9 -9 -15 -25 -15 -24 0 -32 10 -18 23 12 13 43 7 43 -8z m75 0
c0 -5 -10 -11 -22 -13 -16 -2 -23 2 -23 13 0 11 7 15 23 13 12 -2 22 -7 22
-13z m105 0 c0 -11 -11 -15 -40 -15 -29 0 -40 4 -40 15 0 11 11 15 40 15 29 0
40 -4 40 -15z m-330 -50 c0 -9 -9 -15 -25 -15 -16 0 -25 6 -25 15 0 9 9 15 25
15 16 0 25 -6 25 -15z m80 0 c0 -9 -9 -15 -25 -15 -16 0 -25 6 -25 15 0 9 9
15 25 15 16 0 25 -6 25 -15z m70 0 c0 -9 -9 -15 -25 -15 -16 0 -25 6 -25 15 0
9 9 15 25 15 16 0 25 -6 25 -15z m75 0 c0 -5 -10 -11 -22 -13 -16 -2 -23 2
-23 13 0 11 7 15 23 13 12 -2 22 -7 22 -13z m93 3 c-7 -20 -68 -23 -68 -4 0
12 10 16 36 16 24 0 34 -4 32 -12z m-318 -53 c0 -9 -9 -15 -25 -15 -16 0 -25
6 -25 15 0 9 9 15 25 15 16 0 25 -6 25 -15z m80 0 c0 -9 -9 -15 -25 -15 -16 0
-25 6 -25 15 0 9 9 15 25 15 16 0 25 -6 25 -15z m70 0 c0 -9 -9 -15 -25 -15
-16 0 -25 6 -25 15 0 9 9 15 25 15 16 0 25 -6 25 -15z m75 0 c0 -5 -10 -11
-22 -13 -16 -2 -23 2 -23 13 0 11 7 15 23 13 12 -2 22 -7 22 -13z m83 3 c-7
-20 -58 -23 -58 -4 0 11 10 16 31 16 20 0 29 -4 27 -12z m-315 -45 c-7 -2 -19
-2 -25 0 -7 3 -2 5 12 5 14 0 19 -2 13 -5z m80 0 c-7 -2 -21 -2 -30 0 -10 3
-4 5 12 5 17 0 24 -2 18 -5z m70 0 c-7 -2 -21 -2 -30 0 -10 3 -4 5 12 5 17 0
24 -2 18 -5z m70 0 c-7 -2 -19 -2 -25 0 -7 3 -2 5 12 5 14 0 19 -2 13 -5z m80
0 c-7 -2 -21 -2 -30 0 -10 3 -4 5 12 5 17 0 24 -2 18 -5z"/>
<path d="M530 520 c0 -5 5 -10 10 -10 6 0 10 5 10 10 0 6 -4 10 -10 10 -5 0
-10 -4 -10 -10z"/>
<path d="M90 390 c0 -5 5 -10 10 -10 6 0 10 5 10 10 0 6 -4 10 -10 10 -5 0
-10 -4 -10 -10z"/>
<path d="M62 298 c-30 -30 3 -77 40 -57 30 16 16 69 -17 69 -6 0 -16 -5 -23
-12z"/>
<path d="M115 120 c3 -5 8 -10 11 -10 2 0 4 5 4 10 0 6 -5 10 -11 10 -5 0 -7
-4 -4 -10z"/>
<path d="M580 100 c0 -5 5 -10 10 -10 6 0 10 5 10 10 0 6 -4 10 -10 10 -5 0
-10 -4 -10 -10z"/>
</g>
</svg>
