<?xml version="1.0" standalone="no"?>
<!DOCTYPE svg PUBLIC "-//W3C//DTD SVG 20010904//EN"
 "http://www.w3.org/TR/2001/REC-SVG-20010904/DTD/svg10.dtd">
<svg version="1.0" xmlns="http://www.w3.org/2000/svg"
 width="64.000000pt" height="64.000000pt" viewBox="0 0 64.000000 64.000000"
 preserveAspectRatio="xMidYMid meet">

<g transform="translate(0.000000,64.000000) scale(0.100000,-0.100000)"
fill="#000000" stroke="none">
<path d="M355 597 c-4 -10 -5 -21 -1 -24 10 -10 18 4 13 24 -4 17 -4 17 -12 0z"/>
<path d="M402 575 c-14 -31 -16 -85 -3 -85 5 0 11 17 13 38 3 20 8 45 12 55 5
9 4 17 -1 17 -6 0 -15 -11 -21 -25z"/>
<path d="M284 557 c-11 -22 -14 -42 -9 -54 8 -17 8 -17 12 2 2 11 9 33 15 48
16 41 1 45 -18 4z"/>
<path d="M330 531 c0 -29 33 -99 37 -79 3 9 -1 26 -6 37 -6 11 -11 29 -11 40
0 12 -4 21 -10 21 -5 0 -10 -8 -10 -19z"/>
<path d="M290 473 c0 -5 4 -15 10 -23 11 -18 25 -7 17 15 -6 15 -27 21 -27 8z"/>
<path d="M410 460 c0 -11 5 -20 10 -20 6 0 10 9 10 20 0 11 -4 20 -10 20 -5 0
-10 -9 -10 -20z"/>
<path d="M150 390 c0 -5 -7 -10 -15 -10 -8 0 -15 -4 -15 -10 0 -5 9 -10 19
-10 11 0 21 -6 24 -12 2 -7 8 -10 12 -5 5 4 4 12 -2 18 -6 6 -9 18 -6 25 3 8
0 14 -6 14 -6 0 -11 -4 -11 -10z"/>
<path d="M291 384 c-65 -28 -67 -34 -20 -73 31 -27 42 -44 42 -65 0 -33 -25
-56 -61 -56 -28 0 -82 51 -82 78 0 41 -32 36 -55 -9 -24 -45 -20 -62 13 -54
39 8 82 -10 82 -34 0 -20 25 -31 76 -31 27 0 32 4 38 30 4 25 15 35 53 52 67
29 115 30 128 1 18 -41 31 -23 25 32 -4 37 -61 106 -104 126 -49 22 -89 23
-135 3z m59 -14 c0 -5 -7 -10 -15 -10 -8 0 -15 5 -15 10 0 6 7 10 15 10 8 0
15 -4 15 -10z m119 -52 c19 -31 3 -35 -22 -5 -12 14 -35 31 -50 37 -16 5 -25
15 -22 20 8 14 77 -24 94 -52z"/>
<path d="M192 321 c-17 -10 4 -77 31 -96 50 -35 93 2 56 49 -25 32 -71 57 -87
47z"/>
<path d="M406 214 c-50 -18 -66 -32 -66 -55 0 -16 8 -19 54 -19 49 0 57 3 75
29 42 58 19 75 -63 45z"/>
<path d="M140 181 c0 -5 -3 -16 -6 -24 -4 -10 2 -14 20 -14 20 0 45 23 34 32
-11 10 -48 14 -48 6z"/>
<path d="M85 170 c-7 -12 2 -30 16 -30 5 0 9 9 9 20 0 21 -15 27 -25 10z"/>
<path d="M494 169 c-10 -17 13 -36 27 -22 12 12 4 33 -11 33 -5 0 -12 -5 -16
-11z"/>
<path d="M554 169 c-10 -17 13 -36 27 -22 12 12 4 33 -11 33 -5 0 -12 -5 -16
-11z"/>
<path d="M44 156 c-4 -10 -3 -26 3 -35 9 -14 44 -16 268 -19 166 -1 262 1 269
8 11 11 -15 15 -66 11 -14 -1 -29 3 -33 9 -4 7 -12 7 -25 0 -11 -6 -93 -9
-202 -8 l-182 3 -13 25 c-11 22 -13 23 -19 6z"/>
<path d="M115 60 c17 -19 31 -20 205 -20 174 0 188 1 205 20 18 20 17 20 -205
20 -222 0 -223 0 -205 -20z"/>
</g>
</svg>
