<?xml version="1.0" standalone="no"?>
<!DOCTYPE svg PUBLIC "-//W3C//DTD SVG 20010904//EN"
 "http://www.w3.org/TR/2001/REC-SVG-20010904/DTD/svg10.dtd">
<svg version="1.0" xmlns="http://www.w3.org/2000/svg"
 width="100.000000pt" height="100.000000pt" viewBox="0 0 100.000000 100.000000"
 preserveAspectRatio="xMidYMid meet">

<g transform="translate(0.000000,100.000000) scale(0.100000,-0.100000)"
fill="#000000" stroke="none">
<path d="M185 950 c-6 -10 -1 -48 11 -92 4 -14 16 -18 55 -18 48 0 49 1 49 30
0 23 4 30 20 30 16 0 20 -7 20 -30 0 -28 2 -30 40 -30 38 0 40 2 40 30 0 23 4
30 20 30 16 0 20 -7 20 -30 0 -28 2 -30 40 -30 38 0 40 2 40 30 0 23 4 30 20
30 16 0 20 -7 20 -30 0 -28 2 -30 40 -30 38 0 40 2 40 30 0 23 4 30 20 30 16
0 20 -7 20 -30 0 -29 1 -30 50 -30 54 0 60 7 63 82 l2 33 -312 3 c-207 1 -314
-1 -318 -8z"/>
<path d="M195 788 c-3 -7 -11 -69 -20 -138 -16 -129 -19 -316 -7 -385 7 -36
10 -40 47 -47 22 -4 99 -11 170 -15 106 -7 130 -11 130 -23 0 -12 -17 -15 -90
-15 -49 0 -127 3 -172 8 l-81 7 -7 -41 c-4 -23 -3 -45 3 -51 27 -27 547 -36
637 -10 26 8 30 13 28 43 -1 19 -2 63 0 99 5 165 -3 413 -15 490 l-13 85 -303
3 c-237 2 -304 0 -307 -10z m599 -214 c3 -26 6 -66 6 -90 0 -51 24 -45 -300
-74 -124 -11 -242 -22 -262 -25 l-38 -5 0 89 0 90 33 5 c17 3 145 16 282 29
138 14 255 25 261 26 6 0 14 -20 18 -45z"/>
</g>
</svg>
