<?xml version="1.0" standalone="no"?>
<!DOCTYPE svg PUBLIC "-//W3C//DTD SVG 20010904//EN"
 "http://www.w3.org/TR/2001/REC-SVG-20010904/DTD/svg10.dtd">
<svg version="1.0" xmlns="http://www.w3.org/2000/svg"
 width="100.000000pt" height="100.000000pt" viewBox="0 0 100.000000 100.000000"
 preserveAspectRatio="xMidYMid meet">

<g transform="translate(0.000000,100.000000) scale(0.100000,-0.100000)"
fill="#000000" stroke="none">
<path d="M470 765 c0 -22 -27 -73 -61 -116 -21 -27 -25 -39 -17 -47 8 -8 8
-15 3 -21 -15 -13 -161 -71 -180 -71 -8 0 -38 18 -65 39 -94 75 -119 67 -95
-31 15 -59 15 -69 0 -128 -25 -97 5 -105 93 -25 27 24 49 35 70 35 41 0 90
-19 74 -28 -9 -6 -9 -17 0 -47 7 -22 13 -42 14 -43 1 -2 29 8 61 23 55 24 64
25 124 16 35 -6 69 -11 74 -11 6 -1 -2 -11 -17 -23 -27 -22 -28 -24 -15 -65
l12 -42 32 20 c18 10 42 39 54 62 12 24 22 44 23 45 1 2 36 9 78 17 116 22
228 85 228 129 0 42 -166 146 -267 167 -45 10 -54 17 -91 69 -49 70 -132 118
-132 76z m407 -291 c4 -11 -1 -22 -12 -31 -16 -11 -21 -11 -33 1 -8 8 -12 22
-9 30 8 21 46 21 54 0z m-139 -60 l45 -27 -24 -13 c-34 -19 -59 -17 -94 6 -16
11 -39 20 -50 20 -19 1 -19 2 4 20 32 27 66 25 119 -6z"/>
</g>
</svg>
