<?xml version="1.0" standalone="no"?>
<!DOCTYPE svg PUBLIC "-//W3C//DTD SVG 20010904//EN"
 "http://www.w3.org/TR/2001/REC-SVG-20010904/DTD/svg10.dtd">
<svg version="1.0" xmlns="http://www.w3.org/2000/svg"
 width="100.000000pt" height="100.000000pt" viewBox="0 0 100.000000 100.000000"
 preserveAspectRatio="xMidYMid meet">

<g transform="translate(0.000000,100.000000) scale(0.100000,-0.100000)"
fill="#000000" stroke="none">
<path d="M581 681 c-29 -10 -65 -28 -80 -40 -14 -11 -46 -33 -71 -48 -47 -29
-52 -30 -220 -21 -77 4 -132 -20 -168 -72 -19 -28 -22 -46 -22 -127 0 -120 12
-146 85 -179 154 -71 553 -67 724 7 55 23 117 83 127 123 3 14 4 72 2 129 -3
100 -5 107 -33 144 -70 87 -227 126 -344 84z m234 -49 c123 -63 138 -175 32
-236 -102 -59 -318 -87 -520 -67 -138 13 -178 22 -224 51 -58 35 -52 94 14
137 21 14 43 17 93 15 193 -10 200 -8 314 73 26 19 62 39 80 45 50 15 166 6
211 -18z"/>
<path d="M649 614 c-1 -5 0 -21 1 -36 1 -27 -30 -70 -59 -79 -8 -3 -9 -11 -3
-29 7 -20 23 -27 98 -46 88 -21 90 -21 126 -3 90 46 88 123 -5 171 -42 21
-156 37 -158 22z"/>
<path d="M558 586 c-20 -15 -24 -41 -8 -51 17 -10 60 23 60 45 0 23 -26 26
-52 6z"/>
<path d="M455 514 c-22 -13 -49 -24 -60 -25 -20 -1 105 -27 137 -28 15 -1 14
4 -8 36 -14 21 -26 38 -27 39 -1 0 -20 -10 -42 -22z"/>
<path d="M144 486 c-42 -19 -51 -46 -24 -68 25 -20 70 -33 148 -43 50 -7 54
-5 82 25 l30 32 -33 22 c-30 20 -119 46 -155 46 -9 -1 -31 -7 -48 -14z"/>
<path d="M402 400 c-12 -16 -22 -32 -22 -35 0 -3 23 -5 50 -5 28 0 50 4 50 9
0 11 -40 61 -49 61 -4 0 -17 -13 -29 -30z"/>
<path d="M515 390 c12 -23 21 -29 38 -26 12 3 49 8 82 12 l60 7 -80 18 c-115
26 -119 26 -100 -11z"/>
</g>
</svg>
